<svg width="400" height="400" viewBox="0 0 400 400" fill="none" xmlns="http://www.w3.org/2000/svg">
<path d="M287.431 300.303C306.778 385.029 292.971 360.6 250.742 326.79" stroke="black" stroke-opacity="0.9" stroke-width="6" stroke-linecap="round" stroke-linejoin="round"/>
<path d="M94.828 70.3771C113.332 85.9691 176.677 40.604 186.268 43.0996C206.653 48.4 227.119 56.1071 247.838 61.4965C269.269 67.0723 296.33 67.1443 295.997 67.8392C294.169 71.6482 211.531 94.3032 189.318 98.9257C181.558 100.54 107.282 75.364 93 71.6482" stroke="black" stroke-opacity="0.9" stroke-width="6" stroke-linecap="round" stroke-linejoin="round"/>
<path d="M158 69C53.7401 74.5453 80 79 74 145" stroke="black" stroke-opacity="0.9" stroke-width="6" stroke-linecap="round" stroke-linejoin="round"/>
<path d="M120.922 84.9023C114.073 110.436 114.073 104.779 120.922 108.494C128.891 112.818 182.863 139.683 193.357 139.683C210.043 139.683 248.611 117.108 256.895 107.679" stroke="black" stroke-opacity="0.9" stroke-width="6" stroke-linecap="round" stroke-linejoin="round"/>
<path d="M254.527 195.65C243.826 307.409 100.913 269.227 118.063 178.545C111.711 169.636 99.9601 158.5 118.063 158.5" stroke="black" stroke-opacity="0.9" stroke-width="6" stroke-linecap="round" stroke-linejoin="round"/>
<path d="M202.343 217.654C191.303 226.164 177.424 229.78 167.994 217.654" stroke="black" stroke-opacity="0.9" stroke-width="6" stroke-linecap="round" stroke-linejoin="round"/>
<path d="M172.99 181.788C173.526 177.727 173.733 173.411 173.925 169.312" stroke="black" stroke-opacity="0.9" stroke-width="6" stroke-linecap="round" stroke-linejoin="round"/>
<path d="M205.545 181.788C206.547 177.575 206.945 173.573 206.945 169.312" stroke="black" stroke-opacity="0.9" stroke-width="6" stroke-linecap="round" stroke-linejoin="round"/>
<path d="M292.896 217.654C272.658 257.952 236.129 288.873 216.393 328.372" stroke="black" stroke-opacity="0.9" stroke-width="6" stroke-linecap="round" stroke-linejoin="round"/>
<path d="M307.729 214.535C328.431 219.264 318.551 236.092 302.266 227.928" stroke="black" stroke-opacity="0.9" stroke-width="6" stroke-linecap="round" stroke-linejoin="round"/>
<path d="M320.999 228.568C302.424 249.819 263.216 364.399 221.076 334.271" stroke="black" stroke-opacity="0.9" stroke-width="6" stroke-linecap="round" stroke-linejoin="round"/>
<path opacity="0.503384" d="M269.478 298.532C261.278 299.297 255.585 298.114 250.742 292.504" stroke="black" stroke-opacity="0.9" stroke-width="6" stroke-linecap="round" stroke-linejoin="round"/>
<path d="M150.818 269.615C168.858 277.028 166.108 305.738 176.913 316.306C187.076 326.248 221.387 268.409 225.28 266.501C231.057 263.678 245.441 273.49 250.741 275.22" stroke="black" stroke-opacity="0.9" stroke-width="6" stroke-linecap="round" stroke-linejoin="round"/>
<path d="M152.381 270.674C127.565 277.279 85.1756 302.081 79 345.525" stroke="black" stroke-opacity="0.9" stroke-width="6" stroke-linecap="round" stroke-linejoin="round"/>
<path d="M261.425 169.128C280.874 167.251 266.988 186.589 257.166 192.391" stroke="black" stroke-opacity="0.9" stroke-width="6" stroke-linecap="round" stroke-linejoin="round"/>
</svg>
